<?xml version="1.0" encoding="utf-8"?>
<!-- Generator: Adobe Illustrator 25.2.3, SVG Export Plug-In . SVG Version: 6.00 Build 0)  -->
<svg version="1.1" id="_x32_" xmlns="http://www.w3.org/2000/svg" xmlns:xlink="http://www.w3.org/1999/xlink" x="0px" y="0px"
	 viewBox="0 0 512 512" style="enable-background:new 0 0 512 512;" xml:space="preserve">
<style type="text/css">
	.st0{fill:#FFFFFF;}
</style>
<g>
	<polygon class="st0" points="219.4,109.4 113.3,237.1 0,250.8 85.1,139.6 	"/>
	<polygon class="st0" points="402.6,292.6 274.9,398.7 261.2,512 372.4,426.9 	"/>
	<path class="st0" d="M500.8,133.3c18.2-51.8,12.6-99.4-5-117.1c-17.7-17.7-65.2-23.2-117-5L500.8,133.3z"/>
	<path class="st0" d="M491.1,156.5L355.5,20.9c-23.2,11.3-46.5,27.5-67.7,49.7C227,134.2,132.1,258.7,132.1,258.7l110.4,110.4
		l10.8,10.8c0,0,124.6-95,188.2-155.7C463.6,203.1,479.8,179.7,491.1,156.5z M287.7,224.3c-21.2-21.2-21.2-55.6,0-76.8
		c21.2-21.2,55.6-21.2,76.8,0c21.2,21.2,21.2,55.6,0,76.8C343.4,245.5,309,245.5,287.7,224.3z"/>
	<path class="st0" d="M190.9,391.2l-12.1-12.1c-13.8,51.8-81.7,69.8-81.7,69.8s26-31.7,27.4-53.4c1.8-27.5-8.7-17.3-21.6-11.5
		c-14.2,6.3-36.8,6.5-36.8,6.5s10.8-9.4,22.4-32.5c7.9-15.8,26.2-24.2,41.8-27.5l-9.4-9.4c-18.4-13.8-47.5,0.1-61.6,25
		c-11.3,20-31.5,68.2-53.4,69.3c13.8,11.5,33.3,17.2,57.5,6.9c24.1-10.4,29.9,0,10.3,19.5C61,454.5,15,470.5,13.9,494.7
		c26.4-5.7,80.1,3.2,118.4-14.9C176,459,197.8,418.8,190.9,391.2z"/>
</g>
</svg>
