<?xml version="1.0" encoding="utf-8"?>
<!-- Generator: Adobe Illustrator 25.2.3, SVG Export Plug-In . SVG Version: 6.00 Build 0)  -->
<svg version="1.1" id="iconsのコピー" xmlns="http://www.w3.org/2000/svg" xmlns:xlink="http://www.w3.org/1999/xlink" x="0px"
	 y="0px" viewBox="0 0 512 512" style="enable-background:new 0 0 512 512;" xml:space="preserve">
<style type="text/css">
	.st0{fill:#FFFFFF;}
</style>
<path class="st0" d="M457.4,179.2c-6.2-6.2-16.4-6.3-22.6,0c0,0,0,0,0,0l-19.9,19.9c-11.5-11.2-24.3-21-38-29.4
	c-2.1-1.2-4.1-2.5-6.2-3.6l9.5-30.4c2.8-8.4-1.8-17.4-10.2-20.2c-8.4-2.8-17.4,1.8-20.2,10.2c-0.1,0.2-0.1,0.3-0.2,0.5l-8.2,26.3
	c-18.7-7-38.2-11.4-58.1-12.9v-29.6c0-8.8-7.2-16-16-16c-8.8,0-16,7.2-16,16v29.6c-19.9,1.5-39.5,5.9-58.1,12.9l-8.2-26.3
	c-2.5-8.5-11.4-13.3-19.9-10.8c-8.5,2.5-13.3,11.4-10.8,19.9c0.1,0.2,0.1,0.3,0.2,0.5l9.5,30.4c-2.1,1.2-4.2,2.4-6.2,3.6
	c-13.7,8.4-26.5,18.2-38,29.4l-19.9-19.9c-6.2-6.2-16.4-6.2-22.6,0c-6.2,6.2-6.2,16.4,0,22.6L98.3,223c-6.7,8.6-12.7,17.7-18,27.2
	c-2.7,4.9-2.7,10.8,0,15.6c18.5,33,45.1,60.8,77.4,80.5c67.3,41,151.9,41,219.3,0c32.3-19.8,58.9-47.5,77.3-80.5
	c2.7-4.9,2.7-10.8,0-15.6c-5.3-9.5-11.3-18.6-18-27.2l21.2-21.1C463.7,195.6,463.7,185.5,457.4,179.2
	C457.4,179.2,457.4,179.2,457.4,179.2z M267.3,312.4c-24.4,0.3-41-26.7-41-53.9c0-38.1,23.3-57.7,41-57.7s45,16.1,45,55.2
	C312.3,289.9,284.9,312.2,267.3,312.4z M112.8,258c5-7.9,10.5-15.5,16.6-22.6c2.1-1.4,15.2-16.1,20.9-20.3
	c23.4-17.5,56.6-34.4,85-38.5c-56.6,34.2-56.1,123.8,0,159.5C198,327.7,131.4,288,112.8,258z M299.3,336c63.7-36.8,61.2-130,0-159.5
	c43,4.7,85,36.1,100.8,53.2c1.2,2.3,2.9,4.2,5,5.7c6.1,7.1,11.7,14.7,16.7,22.6c-18.7,30-34.7,43-69.9,62.1
	C340.3,326.4,299.3,336,299.3,336z"/>
</svg>
