<?xml version="1.0" encoding="utf-8"?>
<!-- Generator: Adobe Illustrator 25.2.3, SVG Export Plug-In . SVG Version: 6.00 Build 0)  -->
<svg version="1.1" id="_x32_" xmlns="http://www.w3.org/2000/svg" xmlns:xlink="http://www.w3.org/1999/xlink" x="0px" y="0px"
	 viewBox="0 0 512 512" style="enable-background:new 0 0 512 512;" xml:space="preserve">
<style type="text/css">
	.st0{fill:#FFFFFF;}
</style>
<g>
	<path class="st0" d="M373.6,29.7c-0.9,0-1.9,0-2.8,0C313.7,30.9,276.7,59,256,93.2C235.3,59,198.3,30.9,141.2,29.8
		c-0.9,0-1.9,0-2.8,0c-38.6,0-73.6,15.5-98.5,43.5C13.8,102.6,0,143.8,0,192.3c0,95.3,76.4,153.4,150.3,209.6
		c28.5,21.7,58,44.1,83.5,68.7l1.1,1.5c5.1,6.2,12.4,9.9,20.3,10.1l0.8,0l0.8,0c7.8-0.2,15.2-3.9,20.2-10.1l1.2-1.6
		c25.5-24.6,55-47,83.5-68.7C435.6,345.7,512,287.6,512,192.3C512,96.6,455.1,29.7,373.6,29.7z M371.4,357.7
		c-37.1,29-78.2,57.9-113.7,92.1c-0.7,0.7-1.2,1.2-1.7,1.8c-0.5-0.5-1-1.1-1.7-1.8C207,404.2,149.7,368,105.1,328.6
		c-22.3-19.6-41.4-39.9-54.8-62.1c-13.4-22.2-21.2-46.2-21.2-74.2c0-44.2,12.8-77.5,32.5-99.7c19.8-22.2,46.6-33.7,76.7-33.8l2.2,0
		c33.8,0.7,57.8,12.7,75,29.7c17.1,17,27.2,39.6,30.8,61c0.8,4.7,4.8,8.1,9.6,8.1c4.8,0,8.8-3.4,9.6-8.1c3.6-21.4,13.6-44,30.8-61
		c17.2-17,41.2-29,75-29.7l2.2,0c30.2,0.1,57,11.6,76.7,33.8c19.7,22.2,32.5,55.4,32.5,99.7c0,28.1-7.8,52-21.2,74.2
		C441.6,299.8,408.5,328.8,371.4,357.7z"/>
</g>
</svg>
