<svg id="レイヤー_1" data-name="レイヤー 1" xmlns="http://www.w3.org/2000/svg" xmlns:xlink="http://www.w3.org/1999/xlink" viewBox="0 0 95.33 68.13"><defs><style>.cls-1{fill:none;}.cls-2{clip-path:url(#clip-path);}.cls-3{fill:#fff;fill-rule:evenodd;}</style><clipPath id="clip-path" transform="translate(-2.92 -10.4)"><rect class="cls-1" x="-15.47" y="-21.59" width="132.11" height="132.11"/></clipPath></defs><g class="cls-2"><g class="cls-2"><path class="cls-3" d="M94.08,10.4H20.19A4.18,4.18,0,0,0,16,14.57v15.7h4.78v-15H93.48V52.75H32.86V63.18H49.22l-1.2,8c-1.41.29-4.39,5.51-4.39,5.51-.51,1.25,1.1,1.84,2.46,1.84H68.18c1.36,0,3.17-.32,2.46-1.84,0,0-3-5.2-4.38-5.51l-1.1-8H94.08A4.17,4.17,0,0,0,98.25,59V14.57a4.17,4.17,0,0,0-4.17-4.17" transform="translate(-2.92 -10.4)"/><path class="cls-3" d="M26.21,34H5.82a2.88,2.88,0,0,0-2.9,2.87V75.66a2.89,2.89,0,0,0,2.9,2.87H26.21a2.88,2.88,0,0,0,2.89-2.87V36.9A2.87,2.87,0,0,0,26.21,34M12.5,36.36h7a.64.64,0,0,1,.65.64.65.65,0,0,1-.65.65h-7a.65.65,0,0,1-.65-.65.64.64,0,0,1,.65-.64M16,76.88a1.68,1.68,0,1,1,1.7-1.68A1.69,1.69,0,0,1,16,76.88m9.73-4.69H6.29V39.46H25.74Z" transform="translate(-2.92 -10.4)"/></g></g></svg>