<svg id="レイヤー_1" data-name="レイヤー 1" xmlns="http://www.w3.org/2000/svg" viewBox="0 0 141.56 45.89"><defs><style>.cls-1{fill:#fff;}</style></defs><path class="cls-1" d="M17.54,39.32V24.61c0-5.38-1.55-8-4.73-8-3.51,0-5.21,2.91-5.21,8.89V39.32H0V0L7.6-.09V13c1.81-1.59,4.41-2.4,7.72-2.4A8.57,8.57,0,0,1,22.45,14a13.39,13.39,0,0,1,2.62,8.4V39.32Z"/><path class="cls-1" d="M42.42,40.21a14.26,14.26,0,0,1-10.59-4.16,14.65,14.65,0,0,1-4.09-10.66,14.76,14.76,0,0,1,4-10.65,14.08,14.08,0,0,1,10.56-4.16,14.25,14.25,0,0,1,10.59,4.13A14.6,14.6,0,0,1,57,25.36,14.8,14.8,0,0,1,53,36,14,14,0,0,1,42.42,40.21Zm0-22.92a6.3,6.3,0,0,0-5,2.28,8.78,8.78,0,0,0-2,5.89,8.45,8.45,0,0,0,2,5.82,6.4,6.4,0,0,0,5.07,2.22,6,6,0,0,0,4.94-2.36,9.08,9.08,0,0,0,1.9-5.75,9,9,0,0,0-1.93-5.74A6,6,0,0,0,42.42,17.29Z"/><path class="cls-1" d="M59.57,45.77V11.46h7.59v1.73a11.69,11.69,0,0,1,8-2.61A11.48,11.48,0,0,1,84.35,15,15.59,15.59,0,0,1,88,25.22a16.1,16.1,0,0,1-3.58,10.66A11.69,11.69,0,0,1,75,40.21c-3.44,0-6-.85-7.74-2.54l-.13,8.22ZM73.33,17.29a6.06,6.06,0,0,0-4.92,2.4,8.73,8.73,0,0,0-2,5.64A8.61,8.61,0,0,0,68.54,31a6.28,6.28,0,0,0,9.84.21,9.13,9.13,0,0,0,1.86-5.87,9.09,9.09,0,0,0-1.87-5.71A5.94,5.94,0,0,0,73.33,17.29Z"/><path class="cls-1" d="M104.8,40.21a13.2,13.2,0,0,1-10.12-4.07A14.86,14.86,0,0,1,90.9,25.63c0-4.5,1.22-8.17,3.63-10.9a12.57,12.57,0,0,1,9.9-4.15c4.14,0,7.42,1.33,9.75,3.94s3.5,6.18,3.5,10.64v1.38H98.92a10.32,10.32,0,0,0,1.6,5.61,4.85,4.85,0,0,0,4.28,2.3c2.9,0,4.7-1.4,5.5-4.26l.12-.43,7.3-.07s-.1,1.38-.21,1.83C116.1,37.49,111.12,40.21,104.8,40.21Zm5.74-18.34a7,7,0,0,0-1.6-4.08,5,5,0,0,0-4.11-1.93,4.92,4.92,0,0,0-4.09,2,7.19,7.19,0,0,0-1.61,4Zm-.12,7.89,6.71-.07-.21,1.81"/><path class="cls-1" d="M134.88,40.72a6.55,6.55,0,0,1-4.79-2,6.72,6.72,0,0,1,4.75-11.46,6.65,6.65,0,0,1,4.73,1.87,6.27,6.27,0,0,1,2,4.72,6.76,6.76,0,0,1-1.93,4.82A6.35,6.35,0,0,1,134.88,40.72Z"/></svg>